<svg width="180" height="100" viewBox="0 0 180 100" fill="none" xmlns="http://www.w3.org/2000/svg">
<g clip-path="url(#clip0_72_174)">
<mask id="mask0_72_174" style="mask-type:luminance" maskUnits="userSpaceOnUse" x="46" y="41" width="88" height="18">
<path d="M133.077 41H46.9233V59H133.077V41Z" fill="white"/>
</mask>
<g mask="url(#mask0_72_174)">
<path d="M64.6484 52.1692C63.4528 56.9902 58.5754 59.929 53.7542 58.7335C48.9332 57.5382 45.9943 52.6605 47.1899 47.8395C48.3854 43.0183 53.2628 40.0793 58.0838 41.2748C58.0919 41.2768 58.1002 41.2789 58.1083 41.2811C62.9166 42.4877 65.8419 47.3575 64.6484 52.1692Z" fill="#F7931A"/>
<path d="M57.9592 48.6953C57.6781 49.8196 55.9637 49.2433 55.4072 49.1057L55.899 47.1383C56.447 47.2733 58.2403 47.5317 57.9507 48.6953H57.9592ZM57.6528 51.8743C57.3493 53.0994 55.2864 52.4365 54.6174 52.2703L55.1598 50.0978C55.8288 50.2664 57.9703 50.5952 57.6528 51.8743ZM59.9012 48.7123C60.0783 47.5149 59.1677 46.8714 57.9339 46.4442L58.3386 44.8225L57.341 44.5753L56.9476 46.1549C56.689 46.0903 56.4221 46.0284 56.1578 45.9693L56.5512 44.3729L55.5647 44.1256L55.16 45.7473L54.5304 45.6069L53.1673 45.2667L52.9059 46.3208C52.9059 46.3208 53.6366 46.4894 53.6226 46.5007C53.9017 46.5345 54.1053 46.7824 54.0836 47.0629L53.6226 48.9094C53.6572 48.9173 53.6912 48.9284 53.7238 48.9432L53.6198 48.915L52.9761 51.5036C52.9158 51.693 52.7134 51.7972 52.5238 51.7369C52.5238 51.7509 51.804 51.5599 51.804 51.5599L51.3149 52.6842L52.5993 53.0019L53.3019 53.1846L52.8944 54.8231L53.8809 55.0704L54.2856 53.4487C54.5515 53.5217 54.8131 53.5891 55.0697 53.651L54.6707 55.2784L55.6572 55.5229L56.0647 53.8872C57.751 54.2051 59.0129 54.0782 59.5469 52.5551C59.9769 51.3296 59.5244 50.6242 58.6391 50.1632C59.2854 50.0143 59.7636 49.6004 59.9012 48.7123Z" fill="white"/>
<path d="M70.3399 56.1769C70.8652 56.1786 71.3821 56.0448 71.8408 55.789C72.3129 55.5373 72.7281 55.1906 73.0606 54.7716C73.4071 54.3284 73.6794 53.832 73.8672 53.3016C74.0653 52.7536 74.1659 52.1755 74.1651 51.5929C74.1967 51.0018 74.0704 50.4129 73.7996 49.8868C73.558 49.4793 73.1082 49.2715 72.4562 49.2715C72.1721 49.2812 71.8896 49.3198 71.613 49.3866C71.2695 49.4633 70.9518 49.628 70.691 49.8644L69.2014 56.0926L69.4404 56.1375C69.5115 56.1549 69.5841 56.1662 69.6568 56.1713C69.75 56.1828 69.8439 56.1875 69.9378 56.1852L70.3399 56.1769ZM73.2994 46.4413C73.95 46.4263 74.5959 46.559 75.188 46.8292C75.702 47.0742 76.1537 47.4326 76.509 47.8776C76.8729 48.3378 77.1404 48.8661 77.296 49.4317C77.4664 50.0554 77.5504 50.6993 77.5461 51.3458C77.5453 53.3573 76.7656 55.29 75.3708 56.7393C74.6945 57.433 73.8899 57.9882 73.0015 58.375C72.0701 58.7849 71.0625 58.994 70.0449 58.9877H69.3253C68.9341 58.9749 68.5436 58.9414 68.1561 58.8865C67.6827 58.8179 67.2137 58.7242 66.7509 58.6054C66.2656 58.4903 65.7945 58.3225 65.3457 58.1052L69.2945 41.5624L72.8218 41.0002L71.4167 46.8715C71.7093 46.7391 72.013 46.6329 72.3244 46.554C72.6454 46.4759 72.975 46.437 73.3053 46.4388L73.2994 46.4413Z" fill="#4D4D4D"/>
<path d="M82.8296 45.2353C82.3698 45.2398 81.9216 45.0925 81.5535 44.8167C81.1633 44.5081 80.9525 44.0254 80.9913 43.5295C80.9897 43.22 81.0557 42.9139 81.1852 42.6328C81.3092 42.359 81.4835 42.1111 81.6996 41.9021C81.9155 41.6969 82.1656 41.5314 82.4388 41.413C82.7229 41.291 83.0291 41.2288 83.3381 41.2302C83.7946 41.2288 84.2386 41.377 84.6028 41.6518C84.9922 41.961 85.2028 42.4432 85.165 42.939C85.1674 43.2492 85.1023 43.5562 84.974 43.8383C84.8499 44.1106 84.6765 44.3573 84.4624 44.5661C84.2471 44.7721 83.997 44.9377 83.7232 45.0552C83.4391 45.1773 83.1329 45.2386 82.8239 45.2351L82.8296 45.2353ZM81.1911 58.6671H77.8184L80.6682 46.6939H84.0605L81.1911 58.6671Z" fill="#4D4D4D"/>
<path d="M87.0117 43.7123L90.5388 43.1671L89.662 46.6944H93.4396L92.7591 49.4712H89.0126L88.0122 53.6477C87.9256 53.9674 87.8719 54.2952 87.8519 54.6261C87.8313 54.8936 87.8709 55.1623 87.967 55.4126C88.0611 55.6373 88.2354 55.8188 88.4561 55.9214C88.7738 56.0618 89.1207 56.1258 89.4679 56.1069C89.8237 56.1081 90.1786 56.0731 90.5275 56.0029C90.8786 55.9343 91.2244 55.8404 91.5617 55.7218L91.8147 58.3187C91.3304 58.4927 90.8357 58.6366 90.3334 58.7487C89.7128 58.8805 89.0792 58.9418 88.4448 58.9315C87.3964 58.9315 86.587 58.774 86.008 58.4648C85.4665 58.1894 85.0326 57.7402 84.7771 57.1887C84.5276 56.6037 84.4187 55.9683 84.4596 55.3337C84.4974 54.5892 84.6036 53.8498 84.7771 53.1246L87.0115 43.7009L87.0117 43.7123Z" fill="#4D4D4D"/>
<path d="M93.3163 53.8862C93.3092 52.893 93.4784 51.9059 93.8165 50.9719C94.1336 50.0886 94.6207 49.2761 95.2498 48.5802C95.8842 47.8899 96.6556 47.3405 97.515 46.9666C98.4523 46.5619 99.4647 46.3597 100.486 46.3739C101.102 46.3666 101.717 46.4315 102.318 46.5675C102.823 46.6873 103.315 46.8587 103.785 47.0791L102.613 49.7126C102.31 49.5889 101.995 49.4825 101.669 49.3837C101.28 49.2755 100.878 49.2253 100.474 49.2348C99.4554 49.198 98.4752 49.6288 97.8129 50.404C97.1552 51.1777 96.8252 52.2176 96.8236 53.5238C96.7926 54.1863 96.9674 54.842 97.3238 55.4015C97.6571 55.8793 98.272 56.1178 99.1675 56.1178C99.5967 56.1182 100.024 56.0721 100.444 55.9802C100.817 55.9005 101.184 55.7868 101.537 55.6401L101.787 58.3497C101.327 58.5237 100.858 58.672 100.382 58.7934C99.777 58.9298 99.1582 58.9942 98.5381 58.9849C97.7151 59.0087 96.896 58.8701 96.1266 58.5771C95.5151 58.3306 94.9645 57.9538 94.5134 57.4728C94.0854 57.0066 93.7692 56.4489 93.5889 55.8424C93.398 55.2042 93.3033 54.5411 93.3078 53.8751L93.3163 53.8862Z" fill="#4D4D4D"/>
<path d="M109.957 49.2461C109.481 49.2394 109.016 49.3906 108.636 49.6761C108.25 49.9748 107.926 50.3465 107.683 50.7695C107.416 51.2197 107.215 51.7066 107.087 52.2145C106.964 52.7014 106.899 53.2012 106.896 53.7037C106.866 54.317 106.991 54.9277 107.259 55.48C107.504 55.9043 107.942 56.118 108.58 56.118C109.056 56.1261 109.522 55.9737 109.901 55.6852C110.288 55.3865 110.612 55.0148 110.857 54.5922C111.12 54.1414 111.316 53.6547 111.438 53.1472C111.561 52.6593 111.625 52.1583 111.629 51.6548C111.661 51.0419 111.536 50.4305 111.267 49.8785C111.022 49.457 110.581 49.2433 109.946 49.2433L109.957 49.2461ZM108.271 58.9875C107.554 59.0041 106.842 58.8798 106.174 58.622C105.612 58.4002 105.109 58.0501 104.707 57.5989C104.311 57.1444 104.013 56.6136 103.83 56.0391C103.631 55.395 103.536 54.7232 103.549 54.0493C103.551 53.1213 103.7 52.1991 103.99 51.3175C104.272 50.4301 104.712 49.6011 105.289 48.8695C105.867 48.1382 106.587 47.5303 107.405 47.0821C108.285 46.6088 109.272 46.3696 110.272 46.3878C110.984 46.3749 111.692 46.4991 112.357 46.7533C112.92 46.9714 113.425 47.3168 113.833 47.7622C114.226 48.2179 114.523 48.7485 114.707 49.322C114.907 49.9667 115.002 50.6396 114.988 51.3146C114.985 52.2418 114.84 53.1634 114.558 54.0465C114.281 54.935 113.849 55.7673 113.282 56.5057C112.712 57.2401 111.995 57.848 111.177 58.2905C110.283 58.7663 109.283 59.0063 108.271 58.9875Z" fill="#4D4D4D"/>
<path d="M120.314 45.2354C119.855 45.2402 119.407 45.0929 119.041 44.8167C118.65 44.5081 118.44 44.0255 118.479 43.5295C118.477 43.2201 118.543 42.9139 118.672 42.6329C118.793 42.3605 118.962 42.113 119.172 41.9021C119.39 41.6976 119.641 41.532 119.915 41.413C120.198 41.2912 120.503 41.2291 120.811 41.2303C121.271 41.2263 121.72 41.3748 122.087 41.6518C122.477 41.961 122.687 42.4432 122.65 42.939C122.65 43.2496 122.583 43.5566 122.453 43.8383C122.331 44.1109 122.158 44.358 121.944 44.5662C121.729 44.7722 121.479 44.9377 121.205 45.0553C120.923 45.1761 120.62 45.2376 120.314 45.2354ZM118.678 58.6671H115.306L118.15 46.694H121.545L118.678 58.6671Z" fill="#4D4D4D"/>
<path d="M123.973 47.2393C124.229 47.1662 124.513 47.0762 124.816 46.978C125.12 46.8797 125.474 46.7897 125.864 46.697C126.293 46.6061 126.725 46.5377 127.16 46.4918C127.701 46.4347 128.244 46.4074 128.788 46.4102C130.564 46.4102 131.789 46.9262 132.464 47.9589C132.868 48.5773 133.072 49.3317 133.077 50.2223V50.2864C133.074 50.8656 132.988 51.5016 132.818 52.1942L131.269 58.6584H127.886L129.389 52.3288C129.479 51.9356 129.552 51.5534 129.606 51.1796C129.664 50.856 129.664 50.5248 129.606 50.2016C129.55 49.9315 129.4 49.6899 129.184 49.5187C128.884 49.322 128.527 49.2301 128.17 49.2572C127.719 49.258 127.27 49.3042 126.829 49.395L124.62 58.6697H121.216L123.973 47.2393Z" fill="#4D4D4D"/>
</g>
</g>
<defs>
<clipPath id="clip0_72_174">
<rect width="88" height="18" fill="white" transform="translate(46 41)"/>
</clipPath>
</defs>
</svg>
