<svg width="180" height="100" viewBox="0 0 180 100" fill="none" xmlns="http://www.w3.org/2000/svg">
<g clip-path="url(#clip0_3143_220)">
<mask id="mask0_3143_220" style="mask-type:luminance" maskUnits="userSpaceOnUse" x="37" y="37" width="106" height="26">
<path d="M142.885 37H37V63H142.885V37Z" fill="white"/>
</mask>
<g mask="url(#mask0_3143_220)">
<path fill-rule="evenodd" clip-rule="evenodd" d="M62.6485 40.7779C62.0893 39.2394 60.8725 38.0269 59.3295 37.4697C57.9079 37.0235 56.6148 37.0235 53.9825 37.0235H46.0896L46.0906 37.0245C43.4743 37.0245 42.1652 37.0245 40.7667 37.4577C39.2237 38.0149 38.0069 39.2273 37.4477 40.7669C37.002 42.1745 37.002 43.477 37.002 46.085V53.9539C37.002 56.576 37.002 57.8675 37.4367 59.272C37.9958 60.8106 39.2126 62.0231 40.7557 62.5803C42.1672 63.0265 43.4743 63.0265 46.0906 63.0265H53.9956C56.6148 63.0265 57.921 63.0265 59.3295 62.5803C60.8736 62.0231 62.0893 60.8106 62.6485 59.272C63.0943 57.8645 63.0943 56.562 63.0943 53.9539V46.096C63.0943 43.485 63.0943 42.1825 62.6485 40.7779ZM55.7981 45.9243L54.2936 47.1537C54.1628 47.2606 53.9719 47.2372 53.8657 47.1062C53.101 46.1638 51.8972 45.6312 50.5932 45.6312C49.14 45.6312 48.2367 46.2574 48.2367 47.1575C48.2367 47.9011 48.9436 48.2924 51.1038 48.7621C53.8531 49.3492 55.1099 50.4842 55.1099 52.4018C55.1099 54.8059 53.1454 56.5805 50.0785 56.7684L49.7793 58.1904C49.7501 58.3293 49.6271 58.4289 49.4845 58.4289H47.1252C46.9307 58.4289 46.7872 58.248 46.8322 58.0595L47.2108 56.4692C45.6906 56.0382 44.4674 55.1998 43.7543 54.165C43.6646 54.0347 43.6943 53.8567 43.8195 53.7597L45.4686 52.4816C45.6045 52.3762 45.7993 52.4071 45.8998 52.5464C46.7736 53.7584 48.1142 54.4761 49.7291 54.4761C51.1823 54.4761 52.282 53.7716 52.282 52.754C52.282 51.9714 51.7322 51.6191 49.8863 51.2278C46.7049 50.5624 45.4481 49.3883 45.4481 47.4706C45.4481 45.2456 47.3247 43.5647 50.1554 43.3465L50.4645 41.8778C50.4937 41.7388 50.6167 41.6392 50.7592 41.6392H53.0869C53.2789 41.6392 53.4219 41.8159 53.3813 42.0029L53.0235 43.6485C54.2416 44.0221 55.2334 44.6902 55.8507 45.5145C55.9465 45.6423 55.9218 45.8233 55.7981 45.9243Z" fill="black"/>
<path d="M78.1653 43.6825C78.1211 43.5656 78.0088 43.4882 77.8834 43.4882H75.4345C75.3091 43.4882 75.1968 43.5656 75.1526 43.6826L70.4348 56.1841C70.3608 56.3803 70.5063 56.5897 70.7167 56.5897H72.5719C72.6978 56.5897 72.8104 56.5117 72.8542 56.3941L73.8618 53.6885H79.4103L80.4267 56.3948C80.4707 56.5121 80.5831 56.5897 80.7087 56.5897H82.61C82.8205 56.5897 82.9661 56.3801 82.8919 56.1838L78.1653 43.6825ZM74.6675 51.5262L76.6177 46.2708L78.5954 51.5262H74.6675Z" fill="black"/>
<path d="M94.8227 54.6157C94.6527 54.6301 94.4913 54.6373 94.2612 54.6373C93.4921 54.6373 93.0159 54.537 93.0159 53.6975V48.9988H94.7017C94.868 48.9988 95.0028 48.8644 95.0028 48.6987V47.3009C95.0028 47.1351 94.868 47.0008 94.7017 47.0008H93.0159V44.5273C93.0159 44.3615 92.8811 44.2272 92.7147 44.2272H90.9731C90.8068 44.2272 90.6719 44.3615 90.6719 44.5273V47.0008H86.8724V46.5811C86.8724 45.5592 87.321 45.3129 88.1543 45.3129C88.2961 45.3129 88.4013 45.3129 88.5039 45.3154C88.6735 45.3196 88.8135 45.1845 88.8135 45.0155V43.6071C88.8135 43.4469 88.687 43.3146 88.5265 43.3072C88.2951 43.2966 88.1222 43.2966 87.8612 43.2966C85.5997 43.2966 84.4917 44.4188 84.4917 46.426V47.0008H83.4745C83.3081 47.0008 83.1733 47.1351 83.1733 47.3009V48.6987C83.1733 48.8644 83.3081 48.9988 83.4745 48.9988H84.4917V56.2896C84.4917 56.4554 84.6266 56.5898 84.7929 56.5898H86.5712C86.7375 56.5898 86.8724 56.4554 86.8724 56.2896V48.9988H90.6719V54.1355C90.6719 56.0972 91.6791 56.6992 93.5653 56.6992C94.0565 56.6992 94.5114 56.6631 94.8956 56.6055C95.0422 56.5834 95.1494 56.4565 95.1494 56.3089V54.9146C95.1494 54.739 94.9985 54.6009 94.8227 54.6157Z" fill="black"/>
<path d="M100.798 46.8183C98.0975 46.8183 96.1655 48.9807 96.1655 51.7998C96.1655 54.765 98.0975 56.7905 100.89 56.7905C102.698 56.7905 104.199 55.9108 104.943 54.3792C105.019 54.2211 104.938 54.0311 104.773 53.9707L103.331 53.444C103.184 53.3901 103.018 53.4576 102.954 53.6005C102.601 54.3914 101.836 54.8107 100.899 54.8107C99.5625 54.8107 98.6194 53.8709 98.4454 52.3199H104.828C104.995 52.3199 105.129 52.1855 105.129 52.0198V51.5808C105.129 48.9259 103.619 46.8183 100.798 46.8183ZM98.5461 50.632C98.8666 49.4003 99.6998 48.7617 100.78 48.7617C102.099 48.7617 102.73 49.6284 102.749 50.632H98.5461Z" fill="black"/>
<path d="M112.129 46.9576C112.027 46.9506 111.914 46.946 111.786 46.946C110.577 46.946 109.606 47.5209 109.185 48.3876V47.3009C109.185 47.1351 109.05 47.0008 108.884 47.0008H107.106C106.939 47.0008 106.805 47.1351 106.805 47.3009V56.2897C106.805 56.4554 106.939 56.5898 107.106 56.5898H108.884C109.05 56.5898 109.185 56.4554 109.185 56.2897V51.6357C109.185 50.1303 110.229 49.2727 111.593 49.2727C111.777 49.2727 111.929 49.279 112.081 49.2917C112.257 49.3064 112.408 49.1688 112.408 48.9928V47.2568C112.408 47.0998 112.287 46.9682 112.129 46.9576Z" fill="black"/>
<path d="M119.073 46.8183C117.847 46.8183 116.931 47.3019 116.345 48.0044V47.3009C116.345 47.1352 116.21 47.0008 116.044 47.0008H114.266C114.099 47.0008 113.964 47.1352 113.964 47.3009V59.5559C113.964 59.7217 114.099 59.8561 114.266 59.8561H116.044C116.21 59.8561 116.345 59.7217 116.345 59.5559V55.5953C116.931 56.3069 117.847 56.7905 119.073 56.7905C121.747 56.7905 123.286 54.5278 123.286 51.7998C123.286 49.081 121.747 46.8183 119.073 46.8183ZM118.552 54.7377C117.261 54.7377 116.29 53.7796 116.29 52.0826V51.5353C116.29 49.8109 117.261 48.8712 118.552 48.8712C120.071 48.8712 120.887 50.0663 120.887 51.7998C120.887 53.5425 120.071 54.7377 118.552 54.7377Z" fill="black"/>
<path d="M133.046 54.7985C132.675 54.7819 132.524 54.5929 132.524 54.1629V50.1393C132.524 47.9223 131.095 46.8183 128.724 46.8183C126.674 46.8183 125.287 47.9215 124.734 49.3662C124.667 49.5399 124.77 49.7321 124.954 49.7699L126.608 50.1116C126.754 50.1417 126.9 50.0612 126.951 49.922C127.217 49.191 127.73 48.8255 128.632 48.8255C129.749 48.8255 130.198 49.3638 130.198 50.2306V50.3857L127.671 50.8875C125.776 51.2524 124.32 52.0553 124.32 53.9256C124.32 55.6317 125.721 56.754 127.579 56.754C128.834 56.754 129.823 56.3617 130.437 55.6866C130.79 56.4346 131.624 56.7613 133.067 56.6208C133.221 56.6058 133.339 56.4759 133.339 56.3217V55.0981C133.339 54.9359 133.209 54.8057 133.046 54.7985ZM130.198 53.1958C130.198 54.318 129.127 54.911 128.001 54.911C127.195 54.911 126.673 54.5096 126.673 53.8071C126.673 52.995 127.332 52.7123 128.22 52.5298L130.198 52.1192V53.1958Z" fill="black"/>
<path d="M142.582 47.0008H140.806C140.677 47.0008 140.562 47.0828 140.52 47.2046L138.374 53.5151L136.174 47.2025C136.132 47.0817 136.018 47.0008 135.889 47.0008H134.057C133.846 47.0008 133.701 47.2103 133.776 47.4065L137.101 56.2249L136.763 57.0551C136.47 57.7849 136.112 57.9766 135.408 57.9766C135.248 57.9766 135.127 57.9708 134.999 57.9609C134.825 57.9473 134.675 58.0852 134.675 58.2601V59.614C134.675 59.7685 134.793 59.8983 134.947 59.9128C135.127 59.9297 135.303 59.9382 135.627 59.9382C137.688 59.9382 138.548 58.889 139.134 57.3106L142.864 47.4064C142.938 47.2102 142.792 47.0008 142.582 47.0008Z" fill="black"/>
</g>
</g>
<defs>
<clipPath id="clip0_3143_220">
<rect width="106" height="26" fill="white" transform="translate(37 37)"/>
</clipPath>
</defs>
</svg>
