<svg width="180" height="100" viewBox="0 0 180 100" fill="none" xmlns="http://www.w3.org/2000/svg">
<path d="M142.144 44.0363L139.011 42.2431L135.832 40.4227C133.731 39.2182 131.104 40.7306 131.104 43.1578V43.5653C131.104 43.7917 131.222 44 131.421 44.1087L132.897 44.951C133.305 45.1864 133.812 44.8876 133.812 44.4166V43.4476C133.812 42.9676 134.328 42.6687 134.745 42.9042L137.643 44.5706L140.532 46.2279C140.949 46.4634 140.949 47.0702 140.532 47.3057L137.643 48.963L134.745 50.6294C134.328 50.8649 133.812 50.566 133.812 50.086V49.606C133.812 47.1789 131.186 45.6574 129.085 46.871L125.906 48.6913L122.772 50.4845C120.662 51.6981 120.662 54.7502 122.772 55.9637L125.906 57.7569L129.085 59.5773C131.186 60.7818 133.812 59.2694 133.812 56.8422V56.4347C133.812 56.2083 133.694 56 133.495 55.8913L132.019 55.049C131.611 54.8136 131.104 55.1124 131.104 55.5834V56.5524C131.104 57.0324 130.588 57.3313 130.171 57.0958L127.273 55.4294L124.384 53.7721C123.968 53.5366 123.968 52.9298 124.384 52.6943L127.273 51.037L130.171 49.3706C130.588 49.1351 131.104 49.434 131.104 49.914V50.394C131.104 52.8211 133.731 54.3426 135.832 53.129L139.011 51.3087L142.144 49.5155C144.254 48.2928 144.254 45.2498 142.144 44.0363Z" fill="black"/>
<path d="M121.604 44.643L114.259 59.7947H111.216L113.96 54.1343L109.649 44.643H112.774L115.545 51.0008L118.57 44.643H121.604Z" fill="black"/>
<path d="M105.909 50.0226C105.909 48.2113 104.596 46.9434 102.984 46.9434C101.371 46.9434 100.058 48.2385 100.058 50.0226C100.058 51.7887 101.371 53.1019 102.984 53.1019C104.596 53.1019 105.909 51.8249 105.909 50.0226ZM105.927 55.4022V54.0075C105.13 54.9766 103.944 55.5743 102.531 55.5743C99.5783 55.5743 97.3413 53.2106 97.3413 50.0226C97.3413 46.8619 99.6689 44.4529 102.594 44.4529C103.971 44.4529 105.13 45.0597 105.927 46.0015V44.6431H108.571V55.4022H105.927Z" fill="black"/>
<path d="M93.6555 50.0226C93.6555 48.2838 92.3423 46.9434 90.7303 46.9434C89.1182 46.9434 87.805 48.2385 87.805 50.0226C87.805 51.7887 89.1182 53.1019 90.7303 53.1019C92.3423 53.1019 93.6555 51.7615 93.6555 50.0226ZM85.1333 59.7947V44.643H87.7778V46.0378C88.5748 45.0506 89.7612 44.4438 91.174 44.4438C94.0812 44.4438 96.3634 46.8347 96.3634 49.9955C96.3634 53.1562 94.0359 55.5653 91.1106 55.5653C89.7521 55.5653 88.6382 55.0309 87.8593 54.1253V59.7856H85.1333V59.7947Z" fill="black"/>
<path d="M80.3601 45.6936C80.3601 45.6936 81.0303 44.4438 82.6877 44.4438C83.3941 44.4438 83.8469 44.6883 83.8469 44.6883V47.4325C83.8469 47.4325 82.8507 46.8166 81.936 46.9434C81.0212 47.0702 80.4416 47.9034 80.4416 49.0264V55.4022H77.7065V44.643H80.3511V45.6936H80.3601Z" fill="black"/>
<path d="M73.3051 55.3932V53.9985C72.5081 54.9675 71.3308 55.5653 69.9089 55.5653C66.9655 55.5653 64.7285 53.2015 64.7285 50.0136C64.7285 46.8528 67.047 44.4438 69.9723 44.4438C71.3489 44.4438 72.5081 45.0415 73.3051 45.9925V44.634H75.9496V55.3841H73.3051V55.3932ZM73.2779 50.0136C73.2779 48.2113 71.9647 46.9344 70.3526 46.9344C68.7406 46.9344 67.4274 48.2204 67.4274 50.0136C67.4274 51.7796 68.7406 53.0928 70.3526 53.0928C71.9647 53.0928 73.2779 51.8249 73.2779 50.0136Z" fill="black"/>
<path d="M55.3462 50.7291C55.5363 52.323 56.6775 53.2196 58.1175 53.2196C59.2586 53.2196 60.1371 52.6853 60.6533 51.8249H63.4246C62.7816 54.1072 60.7348 55.5653 58.045 55.5653C54.7937 55.5653 52.5205 53.283 52.5205 50.0408C52.5205 46.7985 54.9295 44.4529 58.1084 44.4529C61.3144 44.4529 63.6329 46.8166 63.6329 50.0408C63.6329 50.2762 63.6148 50.5117 63.5695 50.7291H55.3462ZM60.7439 49.0445C60.5537 47.6498 59.4126 46.8076 58.0812 46.8076C56.7499 46.8076 55.6541 47.6227 55.3733 49.0445H60.7439Z" fill="black"/>
<path d="M48.5625 55.3932V40.2144H51.2704V55.3932H48.5625Z" fill="black"/>
<path d="M47.3038 51.3902C46.7242 53.8626 44.5959 55.5653 41.8427 55.5653C38.6639 55.5653 36.2729 53.1743 36.2729 50.0136C36.2729 46.8528 38.7001 44.4438 41.888 44.4438C44.5778 44.4438 46.6789 46.1464 47.2857 48.5736H44.4873C43.9891 47.6045 43.002 46.9615 41.9061 46.9615C40.3122 46.9615 38.9809 48.2747 38.9809 50.0136C38.9809 51.7524 40.3122 53.0656 41.9061 53.0656C43.0473 53.0656 44.0344 52.4226 44.5054 51.3902H47.3038Z" fill="black"/>
</svg>
