<svg width="180" height="100" viewBox="0 0 180 100" fill="none" xmlns="http://www.w3.org/2000/svg">
<path fill-rule="evenodd" clip-rule="evenodd" d="M123.256 52.5544C123.256 50.8187 121.786 49.412 119.972 49.412C118.158 49.412 116.688 50.8188 116.688 52.5544C116.688 54.2902 118.158 55.6973 119.972 55.6973C121.786 55.6973 123.256 54.2902 123.256 52.5544ZM123.268 46.4466H126.893V58.6618H123.268V57.8811C122.244 58.5857 121.008 59 119.675 59C116.148 59 113.288 56.1142 113.288 52.5544C113.288 48.9945 116.148 46.109 119.675 46.109C121.008 46.109 122.244 46.5232 123.268 47.228V46.4466ZM94.2635 48.0377V46.4468H90.5528V58.6618H94.2719V52.9588C94.2719 51.0346 96.3386 50.0005 97.7726 50.0005C97.7873 50.0005 97.801 50.0019 97.8157 50.0021V46.4478C96.3439 46.4478 94.9902 47.0834 94.2635 48.0377ZM85.0201 52.5545C85.0201 50.8187 83.5497 49.412 81.736 49.412C79.9223 49.412 78.4518 50.8188 78.4518 52.5545C78.4518 54.2902 79.9222 55.6973 81.736 55.6973C83.5498 55.6973 85.0201 54.2902 85.0201 52.5545ZM85.0321 46.4467H88.6566V58.6618H85.0321V57.8811C84.0082 58.5858 82.7722 59 81.4393 59C77.9115 59 75.0516 56.1143 75.0516 52.5544C75.0516 48.9945 77.9115 46.109 81.4393 46.109C82.7723 46.109 84.0082 46.5232 85.0321 47.228V46.4467ZM106.847 46.1181C105.4 46.1181 104.029 46.5717 103.113 47.823V46.4474H99.5045V58.6619H103.158V52.2428C103.158 50.3853 104.392 49.4757 105.878 49.4757C107.471 49.4757 108.387 50.4359 108.387 52.2176V58.6619H112.007V50.8941C112.007 48.0515 109.767 46.1181 106.847 46.1181ZM69.7722 58.6619H73.5657V41.0032H69.7722V58.6619ZM53.1079 58.6668H57.1249V41H53.1079V58.6668ZM67.1579 41C67.1579 44.8247 65.6808 48.3827 63.0487 51.0273L68.6013 58.6675H63.6398L57.6054 50.3643L59.1628 49.1873C61.7455 47.2351 63.2269 44.2511 63.2269 41L67.1579 41Z" fill="black"/>
</svg>
