<svg width="180" height="100" viewBox="0 0 180 100" fill="none" xmlns="http://www.w3.org/2000/svg">
<g clip-path="url(#clip0_72_167)">
<path fill-rule="evenodd" clip-rule="evenodd" d="M84.5815 59.4034H95.0196V40.562H84.5815V59.4034Z" fill="#FF5F00"/>
<path fill-rule="evenodd" clip-rule="evenodd" d="M85.2442 49.9827C85.2442 46.1602 87.0259 42.7558 89.8005 40.562C87.7712 38.9573 85.211 38 82.4282 38C75.8403 38 70.5 43.3649 70.5 49.9827C70.5 56.6005 75.8403 61.9654 82.4282 61.9654C85.211 61.9654 87.7712 61.0081 89.8005 59.4035C87.0259 57.2093 85.2442 53.8052 85.2442 49.9827Z" fill="#EB001B"/>
<path fill-rule="evenodd" clip-rule="evenodd" d="M108.729 57.4079V56.9429H108.608L108.469 57.2628L108.33 56.9429H108.209V57.4079H108.294V57.0571L108.425 57.3596H108.513L108.644 57.0564V57.4079H108.729ZM107.963 57.4079V57.0221H108.118V56.9436H107.724V57.0221H107.879V57.4079H107.963ZM109.101 49.9826C109.101 56.6004 103.761 61.9653 97.173 61.9653C94.3902 61.9653 91.8297 61.008 89.8008 59.4034C92.5753 57.2095 94.3571 53.8051 94.3571 49.9826C94.3571 46.1605 92.5753 42.756 89.8008 40.5619C91.8297 38.9572 94.3902 37.9999 97.173 37.9999C103.761 37.9999 109.101 43.3648 109.101 49.9826Z" fill="#F79E1B"/>
</g>
<defs>
<clipPath id="clip0_72_167">
<rect width="39" height="24" fill="white" transform="translate(70.5 38)"/>
</clipPath>
</defs>
</svg>
