<svg width="180" height="100" viewBox="0 0 180 100" fill="none" xmlns="http://www.w3.org/2000/svg">
<g clip-path="url(#clip0_72_128)">
<path d="M75.0431 43.3995C74.8723 43.3995 74.7272 43.5235 74.7005 43.6923L72.7236 56.2293C72.7164 56.2751 72.7192 56.3219 72.7319 56.3665C72.7445 56.4111 72.7667 56.4524 72.7968 56.4876C72.8269 56.5229 72.8643 56.5511 72.9064 56.5705C72.9485 56.5899 72.9943 56.6 73.0407 56.6H75.3851C75.5557 56.6 75.701 56.4758 75.7277 56.3072L76.3084 52.6256C76.3348 52.457 76.4802 52.3328 76.6509 52.3328H78.7824C81.2729 52.3328 83.387 50.5157 83.7732 48.0534C84.1626 45.5702 82.2227 43.4049 79.4732 43.3995H75.0431ZM77.3221 46.1982H79.0275C80.4315 46.1982 80.8887 47.0267 80.7442 47.9429C80.5996 48.861 79.8895 49.5373 78.5313 49.5373H76.7955L77.3221 46.1982ZM88.5415 47.0505C87.9495 47.0527 87.2683 47.174 86.5036 47.4925C84.7494 48.2237 83.907 49.7348 83.5493 50.8364C83.5493 50.8364 82.4106 54.1975 84.9832 56.044C84.9832 56.044 87.369 57.8217 90.0548 55.9345L90.0085 56.2293C90.0013 56.275 90.0041 56.3218 90.0167 56.3664C90.0293 56.4109 90.0514 56.4522 90.0815 56.4874C90.1116 56.5227 90.1489 56.551 90.1909 56.5704C90.233 56.5898 90.2787 56.5999 90.325 56.6H92.5507C92.7214 56.6 92.8665 56.4758 92.8932 56.3072L94.247 47.7218C94.2543 47.676 94.2515 47.6292 94.2389 47.5846C94.2264 47.54 94.2043 47.4986 94.1742 47.4633C94.1441 47.428 94.1067 47.3997 94.0647 47.3803C94.0226 47.3608 93.9768 47.3507 93.9304 47.3506H91.7048C91.534 47.3506 91.3887 47.4749 91.3623 47.6434L91.2895 48.1056C91.2895 48.1056 90.3177 47.0438 88.5415 47.0505ZM88.6143 49.7622C88.8698 49.7622 89.1036 49.7975 89.3133 49.8649C90.2736 50.1731 90.8181 51.0957 90.6605 52.0956C90.4662 53.3269 89.4564 54.2335 88.1614 54.2335C87.9061 54.2335 87.6724 54.1985 87.4624 54.1311C86.5023 53.8228 85.9545 52.9003 86.112 51.9003C86.3063 50.6691 87.3193 49.7622 88.6143 49.7622Z" fill="#003087"/>
<path d="M107.093 43.3995C106.923 43.3995 106.778 43.5235 106.751 43.6923L104.774 56.2293C104.767 56.2751 104.77 56.3219 104.782 56.3665C104.795 56.4111 104.817 56.4524 104.847 56.4876C104.877 56.5229 104.915 56.5511 104.957 56.5705C104.999 56.5899 105.045 56.6 105.091 56.6H107.435C107.606 56.6 107.751 56.4758 107.778 56.3072L108.359 52.6256C108.385 52.457 108.53 52.3328 108.701 52.3328H110.833C113.323 52.3328 115.437 50.5157 115.823 48.0534C116.213 45.5702 114.273 43.4049 111.523 43.3995H107.093ZM109.372 46.1982H111.078C112.482 46.1982 112.939 47.0267 112.794 47.9429C112.65 48.861 111.94 49.5373 110.582 49.5373H108.846L109.372 46.1982ZM120.592 47.0505C120 47.0527 119.318 47.174 118.554 47.4925C116.799 48.2237 115.957 49.7348 115.599 50.8364C115.599 50.8364 114.461 54.1975 117.034 56.044C117.034 56.044 119.419 57.8217 122.105 55.9345L122.059 56.2293C122.052 56.2751 122.054 56.3219 122.067 56.3665C122.08 56.4111 122.102 56.4524 122.132 56.4876C122.162 56.5229 122.199 56.5511 122.242 56.5705C122.284 56.5899 122.329 56.6 122.376 56.6H124.601C124.772 56.6 124.917 56.4758 124.944 56.3072L126.298 47.7218C126.305 47.676 126.303 47.6291 126.29 47.5845C126.277 47.5398 126.255 47.4984 126.225 47.4631C126.195 47.4279 126.157 47.3995 126.115 47.3801C126.073 47.3607 126.027 47.3506 125.981 47.3506H123.755C123.585 47.3506 123.439 47.4749 123.413 47.6434L123.34 48.1056C123.34 48.1056 122.368 47.0438 120.592 47.0505ZM120.664 49.7622C120.92 49.7622 121.154 49.7975 121.363 49.8649C122.324 50.1731 122.868 51.0957 122.711 52.0956C122.516 53.3269 121.506 54.2335 120.211 54.2335C119.956 54.2335 119.722 54.1985 119.512 54.1311C118.552 53.8228 118.005 52.9003 118.162 51.9003C118.356 50.6691 119.369 49.7622 120.664 49.7622Z" fill="#0070E0"/>
<path d="M95.3031 47.3506C95.1267 47.3506 95.0012 47.5229 95.0551 47.6907L97.4951 55.2624L95.2889 58.8305C95.1818 59.0037 95.3063 59.2274 95.5099 59.2274H98.1175C98.1921 59.2274 98.2654 59.2081 98.3303 59.1714C98.3952 59.1348 98.4496 59.082 98.4882 59.0182L105.303 47.7451C105.407 47.5719 105.282 47.3504 105.08 47.3504H102.473C102.397 47.3504 102.323 47.3701 102.258 47.4074C102.193 47.4448 102.138 47.4985 102.1 47.5633L99.4174 52.0919L98.0557 47.5969C98.0114 47.4506 97.8764 47.3504 97.7237 47.3504L95.3031 47.3506Z" fill="#003087"/>
<path d="M128.826 43.3995C128.656 43.3995 128.51 43.5238 128.484 43.6923L126.506 56.2288C126.499 56.2746 126.502 56.3215 126.514 56.3661C126.527 56.4108 126.549 56.4522 126.579 56.4875C126.609 56.5228 126.647 56.5511 126.689 56.5705C126.731 56.5899 126.777 56.6 126.823 56.6H129.168C129.338 56.6 129.484 56.4758 129.51 56.3072L131.487 43.7703C131.495 43.7245 131.492 43.6777 131.479 43.6332C131.467 43.5886 131.444 43.5473 131.414 43.5121C131.384 43.4768 131.347 43.4485 131.305 43.4291C131.263 43.4097 131.217 43.3996 131.171 43.3995H128.826Z" fill="#0070E0"/>
<path d="M55.4985 43.3995C55.3474 43.3996 55.2014 43.4536 55.0866 43.5518C54.9718 43.6499 54.8958 43.7857 54.8722 43.9349L53.8315 50.535C53.8801 50.2268 54.1457 49.9996 54.4578 49.9996H57.5072C60.5762 49.9996 63.1804 47.7608 63.6562 44.7268C63.6916 44.5003 63.7117 44.2717 63.7163 44.0425C62.9363 43.6335 62.0202 43.3995 61.0163 43.3995H55.4985Z" fill="#001C64"/>
<path d="M63.7159 44.0427C63.7113 44.2719 63.6912 44.5006 63.6558 44.7271C63.18 47.761 60.5756 49.9999 57.5068 49.9999H54.4574C54.1455 49.9999 53.8797 50.2268 53.8311 50.5353L52.8743 56.6002L52.2749 60.4051C52.2633 60.4786 52.2676 60.5537 52.2878 60.6254C52.308 60.697 52.3435 60.7634 52.3918 60.8201C52.4401 60.8767 52.5002 60.9221 52.5678 60.9533C52.6354 60.9844 52.709 61.0005 52.7834 61.0005H56.0932C56.2443 61.0004 56.3903 60.9464 56.5051 60.8482C56.6199 60.7501 56.6959 60.6143 56.7195 60.4651L57.5913 54.9355C57.615 54.7863 57.6911 54.6503 57.806 54.5522C57.9209 54.4541 58.067 54.4001 58.2181 54.4001H60.1669C63.2359 54.4001 65.84 52.1613 66.3159 49.1273C66.6538 46.974 65.5693 45.0145 63.7159 44.0427Z" fill="#0070E0"/>
<path d="M51.7378 39.0002C51.4259 39.0002 51.16 39.2271 51.1115 39.5351L48.5142 56.005C48.465 56.3177 48.7066 56.6005 49.0231 56.6005H52.8748L53.8311 50.5355L54.8717 43.9354C54.8954 43.7862 54.9714 43.6503 55.0862 43.5522C55.201 43.4541 55.347 43.4001 55.498 43.4H61.0159C62.02 43.4 62.9359 43.6342 63.7158 44.0429C63.7693 41.2807 61.49 39.0002 58.3563 39.0002H51.7378Z" fill="#003087"/>
</g>
<defs>
<clipPath id="clip0_72_128">
<rect width="82.9834" height="22" fill="white" transform="translate(48.5083 39)"/>
</clipPath>
</defs>
</svg>
