<svg width="180" height="100" viewBox="0 0 180 100" fill="none" xmlns="http://www.w3.org/2000/svg">
<path d="M88.9716 46.1112C87.7708 45.6514 86.5701 45.4392 85.1216 45.7575C83.9558 46.0052 83.0378 46.4645 82.4374 47.6313C82.7201 47.8435 82.9317 48.0556 83.1788 48.2678C83.5676 48.621 83.9564 48.9392 84.4857 49.3635C84.91 48.7626 85.6515 48.0906 86.464 48.0551C87.3821 48.0201 88.2651 48.5505 88.4068 49.293C88.4768 49.6107 88.5128 50.8836 88.5128 50.8836L88.018 50.9897C87.9825 50.9897 87.8769 51.0252 87.7353 50.9897C87.7003 50.9897 87.7003 50.9547 87.6653 50.9547C87.6298 50.9547 87.6298 50.9547 87.5942 50.9192C86.499 50.5304 85.4748 50.3182 84.4857 50.3182C84.1325 50.3182 83.7798 50.3532 83.426 50.3888C82.3313 50.5654 81.06 51.1663 81.06 53.1462C81.06 53.8888 81.2366 54.4547 81.5543 54.914C82.1547 55.7271 83.0028 56.2225 84.1325 56.2225C85.3688 56.2225 86.464 55.9037 87.5237 55.0556C87.5587 55.0556 87.7708 54.8435 87.8414 54.8079L88.5123 54.2775V56.2219H91.3031V49.3635C91.2321 47.8435 90.3845 46.6411 88.9716 46.1112ZM88.0885 52.4748C87.4881 53.5355 86.5345 54.1365 85.4043 54.1365H85.2627C85.0511 54.1365 84.8039 54.1009 84.5568 54.0654C83.7087 53.8532 83.2494 53.1818 83.2849 52.2626L83.3205 51.8738H88.4418L88.0885 52.4748ZM118.005 46.1112C116.805 45.6514 115.604 45.4392 114.155 45.7575C112.99 46.0052 112.072 46.4645 111.471 47.6313C111.753 47.8435 111.966 48.0556 112.213 48.2678C112.601 48.621 112.99 48.9392 113.52 49.3635C113.943 48.7626 114.685 48.0906 115.498 48.0551C116.416 48.0201 117.299 48.5505 117.441 49.293C117.511 49.6107 117.546 50.8836 117.546 50.8836L117.052 50.9897C117.016 50.9897 116.911 51.0252 116.769 50.9897C116.734 50.9897 116.734 50.9547 116.699 50.9547C116.663 50.9547 116.663 50.9547 116.628 50.9192C115.533 50.5304 114.509 50.3182 113.52 50.3182C113.166 50.3182 112.813 50.3532 112.46 50.3888C111.365 50.5654 110.093 51.1663 110.093 53.1462C110.093 53.8888 110.27 54.4547 110.588 54.914C111.189 55.7271 112.036 56.2225 113.166 56.2225C114.403 56.2225 115.498 55.9037 116.558 55.0556C116.593 55.0556 116.805 54.8435 116.875 54.8079L117.546 54.2775V56.2219H120.337V49.3635C120.266 47.8435 119.454 46.6411 118.005 46.1112ZM117.122 52.4748C116.522 53.5355 115.568 54.1365 114.438 54.1365H114.297C114.085 54.1365 113.838 54.1009 113.591 54.0654C112.743 53.8532 112.283 53.1818 112.319 52.2626L112.354 51.8738H117.476L117.122 52.4748ZM137.008 46.1112C135.808 45.6514 134.607 45.4392 133.158 45.7575C131.993 46.0052 131.074 46.4645 130.474 47.6313C130.756 47.8435 130.968 48.0556 131.216 48.2678C131.604 48.621 131.993 48.9392 132.522 49.3635C132.947 48.7626 133.688 48.0906 134.501 48.0551C135.419 48.0201 136.302 48.5505 136.443 49.293C136.514 49.6107 136.549 50.8836 136.549 50.8836L136.055 50.9897C136.019 50.9897 135.914 51.0252 135.772 50.9897C135.737 50.9897 135.737 50.9547 135.701 50.9547C135.666 50.9547 135.666 50.9547 135.631 50.9192C134.536 50.5304 133.512 50.3182 132.522 50.3182C132.169 50.3182 131.816 50.3532 131.463 50.3888C130.368 50.5654 129.096 51.1663 129.096 53.1462C129.096 53.8888 129.273 54.4547 129.591 54.914C130.191 55.7271 131.039 56.2225 132.169 56.2225C133.405 56.2225 134.501 55.9037 135.56 55.0556C135.595 55.0556 135.808 54.8435 135.878 54.8079L136.549 54.2775V56.2219H139.34V49.3635C139.269 47.8435 138.421 46.6411 137.008 46.1112ZM136.125 52.4748C135.525 53.5355 134.571 54.1365 133.441 54.1365H133.299C133.088 54.1365 132.841 54.1009 132.593 54.0654C131.745 53.8532 131.286 53.1818 131.322 52.2626L131.357 51.8738H136.478L136.125 52.4748ZM127.896 46.465C127.013 46.5 126.341 46.8888 125.918 47.6668C125.883 47.7374 125.564 48.3383 125.564 48.3383L124.893 48.1972V46.6061H122.209V56.1869H124.893V52.4392C124.893 52.1215 124.858 51.8033 124.893 51.4495C124.964 50.2122 125.918 49.293 127.083 49.1514C127.554 49.1172 128.025 49.0939 128.496 49.0814V46.4645L127.896 46.465ZM78.9401 53.9598C78.7279 53.9598 78.4808 53.9598 78.2331 53.8888C77.5272 53.7827 77.0678 53.4295 76.8912 52.8635C76.8207 52.6158 76.7496 52.3687 76.7496 52.121V47.8435H77.1739C78.057 47.8079 79.0101 47.7374 79.9287 47.4897L79.3633 45.5458L76.7851 45.9341V43H73.7477V45.8635H71.6278V47.8435H73.6761V52.9696C73.6761 53.6416 73.8527 54.2425 74.2059 54.7729C74.6302 55.4088 75.1951 55.7982 76.0781 56.0103C77.0318 56.258 77.9504 56.2225 78.9751 56.2225H79.2217V53.9593H78.939L78.9401 53.9598ZM102.288 50.7775C102.288 49.8234 102.924 49.0453 103.807 48.9748C104.866 48.8687 105.608 49.3991 105.82 50.3888C105.855 50.5654 105.855 50.7425 105.855 50.9192V56.1869H108.54V49.7173C108.54 49.328 108.504 49.0453 108.469 48.7982C108.257 47.5958 107.621 46.8888 106.527 46.5705C105.361 46.2528 103.418 46.5 102.5 48.0906L102.076 48.9037C101.864 47.7018 101.158 46.8532 100.098 46.5355C98.9321 46.2173 97.1659 46.5 96.2834 48.0556L95.8946 48.7626V46.6061H93.0688V56.1869H95.8591V50.9897C95.8591 50.8131 95.8591 50.6365 95.8946 50.4598C96.0007 49.7523 96.46 49.2225 97.1309 49.0453C97.9079 48.8332 98.6849 49.0808 99.1087 49.6462C99.4269 50.0705 99.4619 50.5304 99.4619 50.8836V56.1869H102.288M41.4637 46.7122C40.8983 47.3486 40.4751 48.0206 40.1924 48.7626L49.0932 56.1514C49.5175 55.8687 49.9412 55.586 50.2939 55.1972L50.4711 55.0201C53.8618 51.4851 51.6368 47.6668 50.2945 46.3939C47.8574 44.0252 43.9718 44.0963 41.6403 46.5355L41.4637 46.7122ZM66.0482 50.8131C66.0482 54.2425 63.2929 57 59.8667 57C59.054 57.0018 58.2489 56.8429 57.4978 56.5326C56.7466 56.2222 56.0642 55.7665 55.4898 55.1915C54.9154 54.6166 54.4602 53.9338 54.1505 53.1824C53.8408 52.431 53.6827 51.6258 53.6852 50.8131C53.6852 47.4192 56.4405 44.6262 59.8667 44.6262C63.2929 44.6617 66.0482 47.4192 66.0482 50.8131Z" fill="black"/>
</svg>
