<svg width="180" height="100" viewBox="0 0 180 100" fill="none" xmlns="http://www.w3.org/2000/svg">
<g clip-path="url(#clip0_72_189)">
<path d="M60.5977 61C66.6728 61 71.5977 56.0751 71.5977 50C71.5977 43.9249 66.6728 39 60.5977 39C54.5225 39 49.5977 43.9249 49.5977 50C49.5977 56.0751 54.5225 61 60.5977 61Z" fill="#26A17B"/>
<path d="M61.7703 51.0151V51.0133C61.6943 51.0186 61.3017 51.0416 60.4281 51.0416C59.7295 51.0416 59.2396 51.0222 59.0663 51.0133V51.0151C56.38 50.8966 54.3763 50.4297 54.3763 49.8691C54.3763 49.3103 56.3817 48.8416 59.0663 48.7231V50.55C59.2414 50.5624 59.7454 50.5924 60.4404 50.5924C61.2752 50.5924 61.6925 50.5571 61.7703 50.55V48.7249C64.4514 48.8452 66.4498 49.312 66.4498 49.8709C66.4498 50.4297 64.4496 50.8966 61.7703 51.0169M61.7703 48.5357V46.9016H65.5107V44.4098H55.3277V46.9016H59.0681V48.5357C56.028 48.6754 53.7432 49.2767 53.7432 49.9982C53.7432 50.7198 56.0298 51.321 59.0681 51.4625V56.7008H61.7721V51.4625C64.8068 51.3228 67.0882 50.7215 67.0882 50C67.0882 49.2802 64.8068 48.6772 61.7721 48.5374" fill="white"/>
<path d="M80.9408 45.0907V47.7328H83.5086V49.7153H80.9231V53.7351C80.9231 54.6229 81.413 55.0562 82.131 55.0562C82.49 55.0562 82.9056 54.943 83.2451 54.7732L83.8871 56.7362C83.2274 56.9997 82.6792 57.1129 81.9806 57.1324C79.961 57.2084 78.64 56.0571 78.64 53.7351V49.7153H76.9033V47.7328H78.64V45.3365L80.9408 45.0907ZM125.211 47.609L125.381 48.6843C126.099 47.533 127.061 47.3632 128.006 47.3632C128.968 47.3632 129.893 47.7399 130.402 48.2492L129.364 50.2494C128.892 49.8533 128.458 49.6446 127.703 49.6446C126.495 49.6446 125.381 50.2865 125.381 52.0037V56.9113H123.079V47.6055L125.211 47.609ZM119.568 51.1761C119.418 49.9682 118.473 49.3634 117.152 49.3634C115.907 49.3634 114.887 49.9682 114.547 51.1761H119.568ZM114.51 53.0825C114.661 54.2338 115.662 55.065 117.285 55.065C118.134 55.065 119.248 54.7431 119.777 54.1967L121.248 55.6504C120.267 56.669 118.663 57.1607 117.246 57.1607C114.038 57.1607 112.13 55.1782 112.13 52.1965C112.13 49.3652 114.056 47.3261 117.076 47.3261C120.191 47.3261 122.136 49.252 121.777 53.0825H114.51ZM104.356 43.7007V48.8717C105.187 47.7965 106.205 47.4746 107.263 47.4746C109.905 47.4746 111.076 49.2679 111.076 52.0055V56.9131H108.773V52.025C108.773 50.3254 107.886 49.6092 106.658 49.6092C105.298 49.6092 104.356 50.7605 104.356 52.1576V56.9148H102.053V43.7024L104.356 43.7007ZM98.2401 44.9846V47.6267H100.808V49.6092H98.2224V53.629C98.2224 54.5168 98.7141 54.95 99.4303 54.95C99.7893 54.95 100.205 54.8369 100.545 54.6671L101.186 56.6301C100.527 56.8936 99.9785 57.0068 99.28 57.0262C97.2604 57.1023 95.9393 55.9492 95.9393 53.629V49.6092H94.2027V47.6267H95.9393V45.2304L98.2401 44.9846ZM91.8789 51.1761C91.7285 49.9682 90.7842 49.3634 89.4631 49.3634C88.2181 49.3634 87.1977 49.9682 86.8581 51.1761H91.8789ZM86.821 53.0825C86.9713 54.2338 87.9723 55.065 89.5958 55.065C90.4446 55.065 91.5588 54.7431 92.0876 54.1967L93.5589 55.6504C92.5774 56.669 90.9734 57.1607 89.5568 57.1607C86.347 57.1607 84.4406 55.1782 84.4406 52.1965C84.4406 49.3652 86.3665 47.3261 89.3853 47.3261C92.4996 47.3261 94.4432 49.252 94.0859 53.0825H86.821Z" fill="#5B5A5D"/>
</g>
<defs>
<clipPath id="clip0_72_189">
<rect width="82" height="22" fill="white" transform="translate(49 39)"/>
</clipPath>
</defs>
</svg>
