<svg width="180" height="100" viewBox="0 0 180 100" fill="none" xmlns="http://www.w3.org/2000/svg">
<path d="M103.33 41.7373C101.965 41.2399 100.522 40.9903 99.0689 41.0003C94.3708 41.0003 91.0527 43.367 91.0292 46.7643C90.9999 49.2602 93.3871 50.6667 95.193 51.5006C97.0458 52.358 97.6653 52.8983 97.6595 53.6647C97.6477 54.8304 96.1796 55.3589 94.8142 55.3589C92.9379 55.3589 91.9131 55.0976 90.3363 54.4428L89.7519 54.1697L89.0854 58.0809C90.2276 58.5566 92.286 58.9648 94.4119 59C99.4066 59 102.672 56.648 102.71 53.0334C102.751 51.0396 101.459 49.5333 98.74 48.2883C97.0869 47.4808 96.0621 46.9405 96.0621 46.1212C96.0621 45.396 96.9401 44.6208 98.7753 44.6208C99.9967 44.5912 101.21 44.8204 102.337 45.2932L102.778 45.4899L103.444 41.7109L103.33 41.7373ZM115.521 41.3174H111.851C110.709 41.3174 109.848 41.6316 109.349 42.765L102.29 58.7563H107.285L108.283 56.1341L114.379 56.14C114.523 56.7537 114.963 58.7563 114.963 58.7563H119.368L115.521 41.3174ZM84.2727 41.1706H89.0325L86.0551 58.6183H81.3012L84.2727 41.1647V41.1706ZM72.1897 50.7871L72.683 53.2096L77.3342 41.3174H82.3759L74.8853 58.7328H69.8553L65.7445 43.9865C65.6779 43.7434 65.5215 43.5346 65.307 43.4022C63.8253 42.6368 62.2554 42.056 60.6323 41.6727L60.6969 41.3057H68.3578C69.3973 41.3468 70.2341 41.6727 70.5131 42.7826L72.1868 50.7959L72.1897 50.7871ZM109.649 52.5665L111.545 47.6863C111.522 47.7392 111.936 46.6792 112.177 46.0243L112.503 47.5307L113.604 52.5636H109.646L109.649 52.5665Z" fill="#1434CB"/>
</svg>
